<?xml version="1.0" encoding="UTF-8"?>
<svg version="1.1" xmlns="http://www.w3.org/2000/svg" width="98" height="96">
<path d="M0 0 C2.05440836 2.06374658 2.92807759 3.34932691 3.25 6.26171875 C2.57621765 12.79951316 0.59157536 17.51323912 -3 23 C-1.39125 22.9071875 -1.39125 22.9071875 0.25 22.8125 C8.87567158 22.84308749 18.4634151 25.08355264 25 31 C26.46628247 33.42646099 27 34.64083342 27 37.5 C25.54431131 41.13922173 23.39488385 42.17198562 20 44 C17.75 44.75 17.75 44.75 15 45 C14.23300781 45.07476562 13.46601562 45.14953125 12.67578125 45.2265625 C6.11182933 45.59940282 4.0438292 44.30827078 -1 40 C-3.57179717 39.59568181 -6.08436127 39.4990226 -8.68359375 39.3828125 C-12.13418581 38.81256289 -13.58733958 36.41266042 -16 34 C-18.88274059 33.85341997 -21.14504468 34.37094205 -24 35 C-24.2165625 36.423125 -24.2165625 36.423125 -24.4375 37.875 C-25 41 -25 41 -26 43 C-38.9179515 39.81010304 -38.9179515 39.81010304 -42 37 C-45.91788705 30.38436786 -48.14694372 24.79252624 -48.1875 17.0625 C-48.20167969 15.83660156 -48.21585938 14.61070313 -48.23046875 13.34765625 C-48.01568128 10.22777724 -47.80928703 8.51357326 -46 6 C-42.65181446 4.88393815 -40.7957874 4.68168504 -37.5 6 C-33.16291416 9.46966868 -29.00252043 13.73623201 -27 19 C-26.90443411 22.09550367 -27.06594754 25.13052586 -27.22265625 28.22265625 C-27.25894932 31.03686299 -27.25894932 31.03686299 -25.49609375 32.87109375 C-25.00238281 33.24363281 -24.50867188 33.61617187 -24 34 C-24.144375 33.34773438 -24.28875 32.69546875 -24.4375 32.0234375 C-27.04319763 19.7549445 -27.04319763 19.7549445 -24.83203125 16.03515625 C-18.51738056 7.31801635 -11.51388378 -1.02802534 0 0 Z M-7 24 C-10.83082186 25.59617578 -12.66656647 26.49984971 -15 30 C-14.67 30.99 -14.34 31.98 -14 33 C-11.03 30.36 -8.06 27.72 -5 25 C-5.66 24.67 -6.32 24.34 -7 24 Z " fill="#519F32" transform="translate(66,5)"/>
<path d="M0 0 C1.21429687 -0.03738281 2.42859375 -0.07476562 3.6796875 -0.11328125 C7.71707068 0.38566973 9.15726108 1.63429659 12.125 4.3125 C15.10480236 5.05914647 15.10480236 5.05914647 18.125 5.3125 C20.8125 5.625 20.8125 5.625 23.125 6.3125 C23.5375 7.01375 23.95 7.715 24.375 8.4375 C24.9525 9.05625 25.53 9.675 26.125 10.3125 C29.19538814 10.36742644 32.11594148 9.89286349 35.125 9.3125 C35.41375 8.178125 35.7025 7.04375 36 5.875 C36.37125 4.699375 36.7425 3.52375 37.125 2.3125 C40.11468034 0.81765983 41.87150788 1.93546463 45 2.9375 C49.77823378 4.62527709 52.69985928 5.66431362 55.125 10.3125 C58.54920937 17.97027732 61.01667685 24.83401332 60.125 33.3125 C58.9660416 35.73119578 58.00177904 37.43572096 56.125 39.3125 C52.89528828 39.94268765 50.87884274 39.80011037 48.08984375 37.99609375 C43.59976568 34.24457058 40.6914036 30.55224069 38.125 25.3125 C37.66351563 26.09753906 37.20203125 26.88257812 36.7265625 27.69140625 C32.2888453 34.83911281 27.96238391 40.77420495 20.125 44.3125 C17.00388886 44.90631871 14.22454042 45.06734497 11.125 44.3125 C8.70683552 41.89433552 8.77711937 41.14423174 8.6875 37.8125 C8.76627837 31.80783784 11.10184771 27.38707706 14.125 22.3125 C13.14660156 22.21453125 12.16820313 22.1165625 11.16015625 22.015625 C2.00717609 20.97162726 -5.51853189 19.69098548 -12.9375 13.9375 C-14.875 11.3125 -14.875 11.3125 -15.5 8.25 C-14.875 5.3125 -14.875 5.3125 -12.5625 3 C-8.30196695 0.32478157 -4.95856463 0.09959062 0 0 Z M35.125 10.3125 C35.24009661 11.73000563 35.36753658 13.14651169 35.5 14.5625 C35.56960937 15.35140625 35.63921875 16.1403125 35.7109375 16.953125 C36.14007113 19.398377 36.91100638 21.16086903 38.125 23.3125 C39.6885348 20.18543041 39.52458487 16.73267557 39.125 13.3125 C38.465 12.3225 37.805 11.3325 37.125 10.3125 C36.465 10.3125 35.805 10.3125 35.125 10.3125 Z M20 15.8125 C19.27554688 16.4621875 18.55109375 17.111875 17.8046875 17.78125 C17.25039063 18.2865625 16.69609375 18.791875 16.125 19.3125 C19.07918439 20.23213949 19.83314686 20.43467108 22.8125 19.1875 C25.34488288 17.49274759 25.34488288 17.49274759 25.9375 14.625 C25.999375 13.861875 26.06125 13.09875 26.125 12.3125 C23.18145643 12.3125 22.14921163 13.87127659 20 15.8125 Z " fill="#519E3C" transform="translate(18.875,43.6875)"/>
<path d="M0 0 C2.05440836 2.06374658 2.92807759 3.34932691 3.25 6.26171875 C2.57621765 12.79951316 0.59157536 17.51323912 -3 23 C-1.39125 22.9071875 -1.39125 22.9071875 0.25 22.8125 C8.87567158 22.84308749 18.4634151 25.08355264 25 31 C26.46628247 33.42646099 27 34.64083342 27 37.5 C25.54431131 41.13922173 23.39488385 42.17198562 20 44 C17.75 44.75 17.75 44.75 15 45 C14.23300781 45.07476562 13.46601562 45.14953125 12.67578125 45.2265625 C6.11182933 45.59940282 4.0438292 44.30827078 -1 40 C-3.4751152 39.57125409 -3.4751152 39.57125409 -6.125 39.5 C-10.70693812 39.28608421 -10.70693812 39.28608421 -13.625 36.4375 C-14.07875 35.633125 -14.5325 34.82875 -15 34 C-14.236875 33.2575 -13.47375 32.515 -12.6875 31.75 C-10.5606298 29.5736677 -8.7440044 27.47832204 -7 25 C-7.66 25 -8.32 25 -9 25 C-9 17.74 -9 10.48 -9 3 C-13.20402626 6.34452097 -13.20402626 6.34452097 -17 10 C-17.66 9.67 -18.32 9.34 -19 9 C-12.97732431 2.81002776 -9.03604947 -0.80679013 0 0 Z " fill="#5EA63F" transform="translate(66,5)"/>
<path d="M0 0 C0.33 0 0.66 0 1 0 C1.2335806 3.5405429 1.37479801 7.07910068 1.5 10.625 C1.60054687 12.12353516 1.60054687 12.12353516 1.703125 13.65234375 C1.89496688 20.89437455 1.89496688 20.89437455 -0.64501953 24.03222656 C-5.04764775 27.51673691 -8.50368149 28.64096105 -14.1171875 28.40625 C-16 28 -16 28 -18 26 C-19.39029774 18.38994924 -17.04371893 12.37192074 -13 6 C-10.65547166 3.65547166 -9.10275052 3.3073746 -5.9375 2.4375 C-2.6878857 1.7288742 -2.6878857 1.7288742 0 0 Z " fill="#55A138" transform="translate(46,60)"/>
<path d="M0 0 C0.66 0 1.32 0 2 0 C2.14567407 3.56206722 2.23419196 7.12336551 2.3125 10.6875 C2.35439453 11.69490234 2.39628906 12.70230469 2.43945312 13.74023438 C2.56405835 21.2913113 2.56405835 21.2913113 -0.4375 25.0625 C-1.283125 25.701875 -2.12875 26.34125 -3 27 C-4.29519995 29.16620544 -4.29519995 29.16620544 -5 31 C-7.31 31 -9.62 31 -12 31 C-15.85735222 19.38202247 -15.85735222 19.38202247 -15 15 C-13.3277607 11.99554339 -11.46295477 9.40500289 -9 7 C-6.25 6.25 -6.25 6.25 -4 6 C-2.75825204 4.0998823 -2.75825204 4.0998823 -2 2 C-1.34 1.34 -0.68 0.68 0 0 Z " fill="#3A8E43" transform="translate(55,8)"/>
<path d="M0 0 C0 10.56 0 21.12 0 32 C-5 31 -5 31 -6.546875 28.8203125 C-6.94390625 27.93085937 -7.3409375 27.04140625 -7.75 26.125 C-8.15734375 25.24070312 -8.5646875 24.35640625 -8.984375 23.4453125 C-10.78677859 19.10567924 -11.16286993 15.75699158 -11.1875 11.0625 C-11.20167969 9.83660156 -11.21585938 8.61070313 -11.23046875 7.34765625 C-11.01569806 4.22802104 -10.74816032 2.54556678 -9 0 C-7 -1 -7 -1 0 0 Z " fill="#388B53" transform="translate(29,11)"/>
<path d="M0 0 C2.00834884 2.03122297 2.91437891 3.34200775 3.28515625 6.19140625 C2.6015064 13.47167743 -0.16785371 18.83575245 -4 25 C-5.65 25 -7.3 25 -9 25 C-9 17.74 -9 10.48 -9 3 C-13.20402626 6.34452097 -13.20402626 6.34452097 -17 10 C-17.66 9.67 -18.32 9.34 -19 9 C-12.97732431 2.81002776 -9.03604947 -0.80679013 0 0 Z " fill="#65AD2F" transform="translate(66,5)"/>
<path d="M0 0 C1.12093144 3.36279431 1.3497915 6.4260218 1.62109375 9.94140625 C1.83865067 12.2169337 1.83865067 12.2169337 4 14 C3.70554386 17.97069647 1.22790094 20.97268234 -0.9375 24.1875 C-1.64777344 25.25355469 -2.35804687 26.31960937 -3.08984375 27.41796875 C-5 30 -5 30 -7 31 C-7.33 24.07 -7.66 17.14 -8 10 C-8.99 10 -9.98 10 -11 10 C-10.34 8.35 -9.68 6.7 -9 5 C-9.66 4.67 -10.32 4.34 -11 4 C-7.3791799 2.98617037 -3.72188582 2.50102309 0 2 C0 1.34 0 0.68 0 0 Z " fill="#8AC43F" transform="translate(54,51)"/>
<path d="M0 0 C0.66 0 1.32 0 2 0 C2.02887512 3.64581687 2.04675585 7.29160463 2.0625 10.9375 C2.07087891 11.97841797 2.07925781 13.01933594 2.08789062 14.09179688 C2.09111328 15.08115234 2.09433594 16.07050781 2.09765625 17.08984375 C2.10289307 18.00628662 2.10812988 18.92272949 2.11352539 19.86694336 C2 22 2 22 1 23 C-2.4375 23.1875 -2.4375 23.1875 -6 23 C-8.51012963 20.48987037 -8.29721609 19.53194763 -8.3125 16.0625 C-8.32925781 15.18722656 -8.34601562 14.31195313 -8.36328125 13.41015625 C-7.92725383 10.5173722 -7.15540469 9.88402202 -5 8 C-4.25070509 6.81663079 -3.54092074 5.60721554 -2.875 4.375 C-1 1 -1 1 0 0 Z " fill="#1D7C33" transform="translate(36,65)"/>
<path d="M0 0 C2.42734288 0.37621238 3.6888502 0.66240687 5.37890625 2.49609375 C10.09624534 10.23377536 13.39693309 18.80201196 12 28 C10.8410416 30.41869578 9.87677904 32.12322096 8 34 C6.00041636 34.04080783 3.99954746 34.04254356 2 34 C3.485 33.505 3.485 33.505 5 33 C4.67 23.43 4.34 13.86 4 4 C3.34 3.67 2.68 3.34 2 3 C2 2.34 2 1.68 2 1 C1.34 0.67 0.68 0.34 0 0 Z " fill="#81BE3E" transform="translate(67,49)"/>
<path d="M0 0 C0.66 0 1.32 0 2 0 C2 0.66 2 1.32 2 2 C2.99 2.33 3.98 2.66 5 3 C5 12.57 5 22.14 5 32 C3.35 32 1.7 32 0 32 C-1.47308269 29.05383462 -1.00294692 26.52237406 -0.87890625 23.2421875 C-0.84348976 22.24761032 -0.84348976 22.24761032 -0.80735779 21.23294067 C-0.73073184 19.11340871 -0.64670357 16.99424315 -0.5625 14.875 C-0.50927819 13.43882006 -0.4565378 12.0026222 -0.40429688 10.56640625 C-0.27511856 7.04404564 -0.1392997 3.52197648 0 0 Z " fill="#66AE2E" transform="translate(67,50)"/>
<path d="M0 0 C2.31 0.33 4.62 0.66 7 1 C7 11.56 7 22.12 7 33 C5.35 32.67 3.7 32.34 2 32 C0.5625 29.625 0.5625 29.625 0 27 C0.99 25.515 0.99 25.515 2 24 C2.36696181 21.48497823 2.36696181 21.48497823 2.4140625 18.67578125 C2.45273437 17.64775391 2.49140625 16.61972656 2.53125 15.56054688 C2.5621875 14.48869141 2.593125 13.41683594 2.625 12.3125 C2.66367187 11.22904297 2.70234375 10.14558594 2.7421875 9.02929688 C2.83650509 6.35303533 2.92210005 3.67678157 3 1 C2.01 0.67 1.02 0.34 0 0 Z " fill="#42943B" transform="translate(22,10)"/>
<path d="M0 0 C3 1 3 1 4.1875 3.0625 C4.455625 3.701875 4.72375 4.34125 5 5 C5.33 5 5.66 5 6 5 C6.21133202 12.04440079 6.07965362 18.24112575 4 25 C3.01 24.67 2.02 24.34 1 24 C0.92652344 22.75283203 0.92652344 22.75283203 0.8515625 21.48046875 C0.77679688 20.39378906 0.70203125 19.30710937 0.625 18.1875 C0.55539063 17.10855469 0.48578125 16.02960937 0.4140625 14.91796875 C0.18804267 11.81373814 0.18804267 11.81373814 -2 9 C-2.33957563 4.92509248 -2.31332486 3.46998729 0 0 Z " fill="#368951" transform="translate(57,45)"/>
<path d="M0 0 C2.36742559 2.15220508 3.82405735 4.01649485 5 7 C5.09556589 10.09550367 4.93405246 13.13052586 4.77734375 16.22265625 C4.74105068 19.03686299 4.74105068 19.03686299 6.50390625 20.87109375 C6.99761719 21.24363281 7.49132813 21.61617187 8 22 C8.33 20.68 8.66 19.36 9 18 C9 19.32 9 20.64 9 22 C10.32 22.33 11.64 22.66 13 23 C11.35 23 9.7 23 8 23 C7.855625 23.94875 7.71125 24.8975 7.5625 25.875 C7 29 7 29 6 31 C3.69 30.34 1.38 29.68 -1 29 C-0.01 28.67 0.98 28.34 2 28 C1.67 21.07 1.34 14.14 1 7 C0.67 7 0.34 7 0 7 C0 4.69 0 2.38 0 0 Z " fill="#88C244" transform="translate(34,17)"/>
<path d="M0 0 C0.33 0 0.66 0 1 0 C1 7.26 1 14.52 1 22 C-0.32 22 -1.64 22 -3 22 C-3.53532823 20.44240657 -4.05265378 18.87861955 -4.5625 17.3125 C-4.85253906 16.44238281 -5.14257812 15.57226562 -5.44140625 14.67578125 C-6.23149906 10.89107096 -5.75999189 8.32741827 -3.84375 4.98046875 C-3.4003125 4.38878906 -2.956875 3.79710937 -2.5 3.1875 C-2.0565625 2.58292969 -1.613125 1.97835938 -1.15625 1.35546875 C-0.7746875 0.90816406 -0.393125 0.46085937 0 0 Z " fill="#1C7B34" transform="translate(46,17)"/>
<path d="M0 0 C2.00720923 0.28674418 4.0085944 0.61866701 6 1 C6.08676908 5.12486838 6.14031295 9.24950384 6.1875 13.375 C6.22520508 15.1384375 6.22520508 15.1384375 6.26367188 16.9375 C6.27333984 18.05898437 6.28300781 19.18046875 6.29296875 20.3359375 C6.31653442 21.89127197 6.31653442 21.89127197 6.34057617 23.47802734 C6.22818604 24.31027832 6.1157959 25.1425293 6 26 C5.01 26.66 4.02 27.32 3 28 C2.67 21.07 2.34 14.14 2 7 C1.01 7 0.02 7 -1 7 C-0.34 5.35 0.32 3.7 1 2 C0.34 1.67 -0.32 1.34 -1 1 C-0.67 0.67 -0.34 0.34 0 0 Z " fill="#79B93E" transform="translate(44,54)"/>
<path d="M0 0 C1.98 0 3.96 0 6 0 C6 7.59 6 15.18 6 23 C4.68 23.33 3.36 23.66 2 24 C2.33 16.41 2.66 8.82 3 1 C-0.60964568 4.60964568 -2.698339 6.76009816 -5 11 C-5.33 10.34 -5.66 9.68 -6 9 C-5.15206256 7.48453733 -4.27047557 5.9878671 -3.375 4.5 C-2.88773438 3.6646875 -2.40046875 2.829375 -1.8984375 1.96875 C-0.95871094 0.99421875 -0.95871094 0.99421875 0 0 Z " fill="#4D9A47" transform="translate(35,64)"/>
<path d="M0 0 C4 1 4 1 6 4 C6.34764093 10.62835364 4.65600792 15.57495599 1 21 C0.67 21 0.34 21 0 21 C0 14.07 0 7.14 0 0 Z " fill="#8DC63B" transform="translate(63,5)"/>
<path d="M0 0 C0.66 0 1.32 0 2 0 C2 7.26 2 14.52 2 22 C0.02 22.99 0.02 22.99 -2 24 C-2.05787784 20.37506666 -2.0935542 16.75025143 -2.125 13.125 C-2.14175781 12.09246094 -2.15851562 11.05992188 -2.17578125 9.99609375 C-2.18222656 9.00996094 -2.18867187 8.02382813 -2.1953125 7.0078125 C-2.20578613 6.09660645 -2.21625977 5.18540039 -2.22705078 4.24658203 C-2 2 -2 2 0 0 Z " fill="#52A031" transform="translate(55,8)"/>
<path d="M0 0 C0.33 0 0.66 0 1 0 C1.33 1.98 1.66 3.96 2 6 C2.33 6 2.66 6 3 6 C3 13.59 3 21.18 3 29 C-4 29 -4 29 -7 27 C-5.68 26.67 -4.36 26.34 -3 26 C-3 26.66 -3 27.32 -3 28 C-2.01 28 -1.02 28 0 28 C-0.05329468 26.78098999 -0.05329468 26.78098999 -0.10766602 25.53735352 C-0.26461673 21.87927511 -0.41366434 18.22091718 -0.5625 14.5625 C-0.61857422 13.28310547 -0.67464844 12.00371094 -0.73242188 10.68554688 C-0.78076172 9.47060547 -0.82910156 8.25566406 -0.87890625 7.00390625 C-0.9260376 5.87799072 -0.97316895 4.7520752 -1.02172852 3.59204102 C-1 1 -1 1 0 0 Z " fill="#6CB134" transform="translate(33,16)"/>
<path d="M0 0 C5.875 0.875 5.875 0.875 7 2 C7.08790975 4.29151417 7.10694038 6.58572524 7.09765625 8.87890625 C7.0962413 9.5655687 7.09482635 10.25223114 7.09336853 10.95970154 C7.08775479 13.16067801 7.07520007 15.36155409 7.0625 17.5625 C7.05748676 19.05143083 7.05292355 20.54036324 7.04882812 22.02929688 C7.03778093 25.68623075 7.02050713 29.34310558 7 33 C6.01 32.67 5.02 32.34 4 32 C4.33 22.1 4.66 12.2 5 2 C3.68 2.99 2.36 3.98 1 5 C0.67 3.35 0.34 1.7 0 0 Z " fill="#4E9C3B" transform="translate(60,47)"/>
<path d="M0 0 C0.66 0 1.32 0 2 0 C2.86059544 5.22553552 3.1827956 10.2700502 3.1875 15.5625 C3.19974609 16.29146484 3.21199219 17.02042969 3.22460938 17.77148438 C3.23667847 22.24107188 2.68355632 25.78778202 1 30 C0.67 30 0.34 30 0 30 C0 20.1 0 10.2 0 0 Z " fill="#56A32C" transform="translate(67,50)"/>
<path d="M0 0 C1.32 0 2.64 0 4 0 C4.05786668 3.79160297 4.09355054 7.58309311 4.125 11.375 C4.14175781 12.45523437 4.15851562 13.53546875 4.17578125 14.6484375 C4.18222656 15.6796875 4.18867187 16.7109375 4.1953125 17.7734375 C4.20578613 18.72653809 4.21625977 19.67963867 4.22705078 20.66162109 C4 23 4 23 2 25 C0.28556781 23.28556781 0.76947033 20.99554759 0.68359375 18.65234375 C0.64169922 17.57275391 0.59980469 16.49316406 0.55664062 15.38085938 C0.51732422 14.24455078 0.47800781 13.10824219 0.4375 11.9375 C0.39431641 10.79732422 0.35113281 9.65714844 0.30664062 8.48242188 C0.20017161 5.65507805 0.09815793 2.82764262 0 0 Z " fill="#79BA36" transform="translate(59,5)"/>
<path d="M0 0 C0.99 0 1.98 0 3 0 C3.05811773 3.74993479 3.09363593 7.49975352 3.125 11.25 C3.14175781 12.31347656 3.15851562 13.37695312 3.17578125 14.47265625 C3.18222656 15.49746094 3.18867188 16.52226562 3.1953125 17.578125 C3.20578613 18.52075195 3.21625977 19.46337891 3.22705078 20.43457031 C2.99119213 23.09951941 2.35661659 24.71863092 1 27 C-0.0394775 23.8815675 -0.11494838 21.72524414 -0.09765625 18.45703125 C-0.09443359 17.38388672 -0.09121094 16.31074219 -0.08789062 15.20507812 C-0.07951172 14.08552734 -0.07113281 12.96597656 -0.0625 11.8125 C-0.05798828 10.68134766 -0.05347656 9.55019531 -0.04882812 8.38476562 C-0.03703498 5.58979073 -0.0205765 2.7949218 0 0 Z " fill="#238033" transform="translate(22,11)"/>
<path d="M0 0 C0.33 0 0.66 0 1 0 C1.05827558 3.5624308 1.09368885 7.12473819 1.125 10.6875 C1.14175781 11.69490234 1.15851562 12.70230469 1.17578125 13.74023438 C1.18222656 14.71669922 1.18867187 15.69316406 1.1953125 16.69921875 C1.20578613 17.59471436 1.21625977 18.49020996 1.22705078 19.4128418 C0.97703456 22.26168257 0.18016512 24.40894543 -1 27 C-1.33 27 -1.66 27 -2 27 C-2.05797565 23.06256167 -2.09358789 19.12523281 -2.125 15.1875 C-2.14175781 14.06794922 -2.15851562 12.94839844 -2.17578125 11.79492188 C-2.18222656 10.72177734 -2.18867187 9.64863281 -2.1953125 8.54296875 C-2.20578613 7.55321045 -2.21625977 6.56345215 -2.22705078 5.54370117 C-2 3 -2 3 0 0 Z " fill="#459639" transform="translate(52,11)"/>
<path d="M0 0 C0.66 0 1.32 0 2 0 C2 7.26 2 14.52 2 22 C1.01 22.33 0.02 22.66 -1 23 C-1.02887512 19.35418313 -1.04675585 15.70839537 -1.0625 12.0625 C-1.07087891 11.02158203 -1.07925781 9.98066406 -1.08789062 8.90820312 C-1.09272461 7.42416992 -1.09272461 7.42416992 -1.09765625 5.91015625 C-1.10289307 4.99371338 -1.10812988 4.07727051 -1.11352539 3.13305664 C-1 1 -1 1 0 0 Z " fill="#2E8733" transform="translate(36,65)"/>
<path d="M0 0 C0.33 0 0.66 0 1 0 C1.08681476 3.62484999 1.14032721 7.24943443 1.1875 10.875 C1.22520508 12.42380859 1.22520508 12.42380859 1.26367188 14.00390625 C1.27333984 14.99003906 1.28300781 15.97617188 1.29296875 16.9921875 C1.3086792 17.90339355 1.32438965 18.81459961 1.34057617 19.75341797 C1.22818604 20.49479004 1.1157959 21.23616211 1 22 C0.01 22.66 -0.98 23.32 -2 24 C-2.05787784 20.37506666 -2.0935542 16.75025143 -2.125 13.125 C-2.14175781 12.09246094 -2.15851562 11.05992188 -2.17578125 9.99609375 C-2.18222656 9.00996094 -2.18867187 8.02382812 -2.1953125 7.0078125 C-2.20578613 6.09660645 -2.21625977 5.18540039 -2.22705078 4.24658203 C-2 2 -2 2 0 0 Z " fill="#61AA30" transform="translate(46,60)"/>
<path d="M0 0 C0.99 0.33 1.98 0.66 3 1 C3.21133202 8.04440079 3.07965362 14.24112575 1 21 C0.01 20.67 -0.98 20.34 -2 20 C-1.84660156 19.33613281 -1.69320312 18.67226562 -1.53515625 17.98828125 C-0.89226979 14.39844078 -0.64966009 10.82204581 -0.4375 7.1875 C-0.39431641 6.49462891 -0.35113281 5.80175781 -0.30664062 5.08789062 C-0.20138547 3.39211314 -0.10027137 1.69607948 0 0 Z " fill="#278333" transform="translate(60,49)"/>
<path d="M0 0 C0 4.95 0 9.9 0 15 C-1.32 14.34 -2.64 13.68 -4 13 C-4.08121924 11.39667209 -4.13929134 9.79215974 -4.1875 8.1875 C-4.22230469 7.29417969 -4.25710937 6.40085937 -4.29296875 5.48046875 C-4 3 -4 3 -2.55078125 1.17578125 C-1 0 -1 0 0 0 Z " fill="#1E7B45" transform="translate(32,73)"/>
<path d="M0 0 C2.966392 5.53726507 3.65558677 10.76636991 3 17 C1.8410416 19.41869578 0.87677904 21.12322096 -1 23 C-2.99958364 23.04080783 -5.00045254 23.04254356 -7 23 C-7 22.67 -7 22.34 -7 22 C-5.35 22 -3.7 22 -2 22 C-0.00881759 17.02988327 0.24845695 12.87666865 0.125 7.625 C0.11597656 6.88894531 0.10695313 6.15289062 0.09765625 5.39453125 C0.07430144 3.5962112 0.03843836 1.79806089 0 0 Z " fill="#B1DA6C" transform="translate(76,60)"/>
<path d="M0 0 C0.33 0 0.66 0 1 0 C1 8.58 1 17.16 1 26 C0.01 26 -0.98 26 -2 26 C-1.9278125 25.33355469 -1.855625 24.66710937 -1.78125 23.98046875 C-1.18807925 18.08995366 -0.92301225 12.3296675 -1.0625 6.41015625 C-1.00279468 4.10776968 -0.65340294 2.20013022 0 0 Z " fill="#58A52C" transform="translate(32,18)"/>
<path d="M0 0 C0.33 1.32 0.66 2.64 1 4 C2.32 4.33 3.64 4.66 5 5 C3.35 5 1.7 5 0 5 C-0.144375 5.94875 -0.28875 6.8975 -0.4375 7.875 C-1 11 -1 11 -2 13 C-4.31 12.34 -6.62 11.68 -9 11 C-9 10.67 -9 10.34 -9 10 C-7.35 9.67 -5.7 9.34 -4 9 C-3.67 7.02 -3.34 5.04 -3 3 C-2.01 3.33 -1.02 3.66 0 4 C0 2.68 0 1.36 0 0 Z " fill="#A2CF71" transform="translate(42,35)"/>
<path d="M0 0 C0.99 0 1.98 0 3 0 C3 4.29 3 8.58 3 13 C2.01 13.33 1.02 13.66 0 14 C0 9.38 0 4.76 0 0 Z " fill="#207C49" transform="translate(18,15)"/>
<path d="M0 0 C3.41566265 4.55421687 3.41566265 4.55421687 3.375 9 C3.38273437 9.845625 3.39046875 10.69125 3.3984375 11.5625 C3 14 3 14 0 18 C0 12.06 0 6.12 0 0 Z " fill="#82C126" transform="translate(74,62)"/>
<path d="M0 0 C0.33 0 0.66 0 1 0 C1 3.96 1 7.92 1 12 C0.01 12.495 0.01 12.495 -1 13 C-2.6148266 8.91543861 -3.41164374 6.23493122 -2 2 C-1.34 1.34 -0.68 0.68 0 0 Z " fill="#227D48" transform="translate(43,22)"/>
<path d="M0 0 C0.28875 0.61875 0.5775 1.2375 0.875 1.875 C1.93720042 4.13325765 1.93720042 4.13325765 4 6 C3.73441476 9.85098598 1.43956652 12.16695501 -1 15 C-1.18451025 4.44191344 -1.18451025 4.44191344 0 0 Z " fill="#AAD569" transform="translate(54,59)"/>
<path d="M0 0 C0.33 0 0.66 0 1 0 C1 3.96 1 7.92 1 12 C-0.32 11.67 -1.64 11.34 -3 11 C-3.33 9.68 -3.66 8.36 -4 7 C-3.01 7.33 -2.02 7.66 -1 8 C-1.020625 7.05125 -1.04125 6.1025 -1.0625 5.125 C-1 2 -1 2 0 0 Z " fill="#45944A" transform="translate(62,62)"/>
<path d="M0 0 C0.99 0.33 1.98 0.66 3 1 C2.88601335 2.62580966 2.75844341 4.25067157 2.625 5.875 C2.52058594 7.23238281 2.52058594 7.23238281 2.4140625 8.6171875 C2 11 2 11 0 13 C0 8.71 0 4.42 0 0 Z " fill="#ABD75F" transform="translate(66,8)"/>
<path d="M0 0 C0 0.66 0 1.32 0 2 C-1.65848177 3.01351664 -3.32665961 4.01120795 -5 5 C-6.36984198 6.29579647 -7.7151049 7.61992749 -9 9 C-9.66 8.67 -10.32 8.34 -11 8 C-3.21621622 0 -3.21621622 0 0 0 Z " fill="#77B36E" transform="translate(58,6)"/>
<path d="M0 0 C0.66 1.32 1.32 2.64 2 4 C0.875 5.5 0.875 5.5 -1 7 C-4.1875 7.1875 -4.1875 7.1875 -7 7 C-7 6.67 -7 6.34 -7 6 C-5.35 6 -3.7 6 -2 6 C-1.34 4.02 -0.68 2.04 0 0 Z " fill="#A1D061" transform="translate(76,76)"/>
</svg>
